<?xml version="1.0" standalone="no"?>
<svg xmlns="http://www.w3.org/2000/svg" width="24" height="24"><rect width="24" height="24" opacity="0"></rect><g><path d="M19.87 9.43L20.71 3.02Q20.76 2.57 20.58 2.18Q20.4 1.8 20.03 1.56Q19.66 1.32 19.2 1.32L3.86 1.32Q3.58 1.32 3.36 1.5Q3.14 1.68 3.08 1.96Q3.02 2.23 3.17 2.5Q3.29 2.71 3.41 2.93Q4.39 4.75 5.04 6.28Q5.69 7.8 5.9 9.43L5.28 9.43Q4.94 9.43 4.72 9.67Q4.49 9.91 4.49 10.25L4.49 12.24Q4.49 13.06 5.08 13.64Q5.66 14.23 6.48 14.23L9.07 14.23Q9.74 14.23 10.2 14.74Q10.66 15.24 10.56 15.91L10.1 19.75Q10.01 20.52 10.34 21.19Q10.68 21.86 11.32 22.27Q11.95 22.68 12.72 22.68Q13.49 22.68 14.11 22.27Q14.74 21.86 15.06 21.19Q15.38 20.52 15.31 19.75L14.86 15.91Q14.76 15.24 15.22 14.74Q15.67 14.23 16.34 14.23L18.94 14.23Q19.78 14.23 20.35 13.64Q20.93 13.06 20.93 12.24L20.93 10.25Q20.93 9.91 20.69 9.67Q20.45 9.43 20.11 9.43ZM19.22 2.81L18.36 9.43L7.44 9.43Q7.22 7.73 6.59 6.1Q5.95 4.46 5.06 2.81ZM16.34 12.72Q15.7 12.72 15.11 12.98Q14.52 13.25 14.11 13.73Q13.68 14.21 13.49 14.83Q13.3 15.46 13.37 16.08L13.82 19.94Q13.85 20.23 13.76 20.45Q13.68 20.66 13.56 20.81Q13.44 20.95 13.22 21.07Q13.01 21.19 12.72 21.19Q12.19 21.19 11.88 20.81Q11.74 20.64 11.65 20.44Q11.57 20.23 11.59 19.94L12.07 16.08Q12.14 15.46 11.94 14.83Q11.74 14.21 11.33 13.73Q10.9 13.25 10.3 12.98Q9.7 12.72 9.07 12.72L6.48 12.72Q6.26 12.72 6.12 12.58Q5.98 12.43 5.98 12.24L5.98 10.92L19.42 10.97L19.42 12.24Q19.42 12.43 19.27 12.58Q19.13 12.72 18.94 12.72L16.34 12.72Z" fill="rgba(0,0,0,0.9019607843137255)"></path></g></svg>