<?xml version="1.0" standalone="no"?>
<svg xmlns="http://www.w3.org/2000/svg" width="24" height="24"><rect width="24" height="24" opacity="0"></rect><g><path d="M17.26 18.26Q17.26 18.67 17.54 18.96Q17.83 19.25 18.24 19.25Q18.65 19.25 18.95 18.96Q19.25 18.67 19.25 18.26Q19.25 17.86 18.95 17.56Q18.65 17.26 18.24 17.26Q17.83 17.26 17.54 17.56Q17.26 17.86 17.26 18.26ZM22.32 17.78Q22.37 18.07 22.37 18.24Q22.37 19.27 21.88 20.14Q21.38 21 20.52 21.5Q19.66 22.01 18.65 22.01L5.38 22.01Q4.37 22.01 3.5 21.5Q2.64 21 2.14 20.14Q1.63 19.27 1.63 18.24Q1.63 17.95 1.66 17.78L3.26 5.52Q3.38 4.56 3.98 3.76Q4.58 2.95 5.47 2.47Q6.36 1.99 7.32 1.99L16.7 1.99Q17.66 1.99 18.55 2.47Q19.44 2.95 20.03 3.77Q20.62 4.58 20.74 5.54L22.32 17.78ZM3.53 15Q3.96 14.76 4.4 14.64Q4.85 14.52 5.35 14.52L18.65 14.52Q19.15 14.52 19.61 14.64Q20.06 14.76 20.47 15L19.25 5.74Q19.13 4.82 18.37 4.15Q17.62 3.48 16.68 3.48L7.32 3.48Q6.41 3.48 5.64 4.15Q4.87 4.82 4.75 5.74L3.53 15ZM18.65 20.5Q19.58 20.5 20.23 19.85Q20.88 19.2 20.88 18.26Q20.88 17.33 20.22 16.67Q19.56 16.01 18.65 16.01L5.35 16.01Q4.44 16.01 3.78 16.66Q3.12 17.3 3.12 18.24Q3.12 19.18 3.78 19.84Q4.44 20.5 5.38 20.5L18.65 20.5Z" fill="rgba(24,36,49,1)"></path></g></svg>