<?xml version="1.0" standalone="no"?>
<svg xmlns="http://www.w3.org/2000/svg" width="24" height="24"><rect width="24" height="24" opacity="0"></rect><g><path d="M9.67 3.12Q8.78 3.26 8.21 3.95Q7.63 4.63 7.63 5.54L7.63 14.11Q7.63 15.14 6.98 15.73Q6.34 16.32 5.09 16.87L5.04 16.9Q4.34 17.21 3.92 17.56Q3.5 17.9 3.14 18.65Q2.83 19.32 2.89 20.02Q2.95 20.71 3.36 21.26Q3.82 21.89 4.56 22.14Q5.3 22.39 5.95 22.3Q7.06 22.18 7.75 21.61Q8.45 21.05 8.77 20.34Q9.1 19.63 9.12 19.01L9.12 8.47L19.61 6.6L19.61 11.86Q19.61 12.36 19.45 12.79Q19.3 13.22 18.79 13.63Q18.24 14.09 17.23 14.52Q16.42 14.9 15.94 15.26Q15.46 15.62 15.1 16.39Q14.78 17.06 14.84 17.76Q14.9 18.46 15.31 19.01Q15.72 19.58 16.42 19.86Q17.11 20.14 17.9 20.04Q19.01 19.9 19.7 19.33Q20.4 18.77 20.72 18.06Q21.05 17.35 21.1 16.73L21.1 4.22Q21.1 3.46 20.69 2.82Q20.28 2.18 19.6 1.88Q18.91 1.58 18.14 1.7L9.67 3.12Z" fill="rgba(0,0,0,0.9019607843137255)"></path></g></svg>