<?xml version="1.0" standalone="no"?>
<svg xmlns="http://www.w3.org/2000/svg" width="24" height="24"><rect width="24" height="24" opacity="0"></rect><g><path d="M9.96 4.82Q8.88 4.82 7.97 5.35Q7.06 5.88 6.53 6.79Q6 7.7 6 8.78Q6 9.86 6.53 10.78Q7.06 11.69 7.97 12.23Q8.88 12.77 9.96 12.77Q11.04 12.77 11.95 12.23Q12.86 11.69 13.39 10.78Q13.92 9.86 13.92 8.78Q13.92 7.7 13.39 6.79Q12.86 5.88 11.95 5.35Q11.04 4.82 9.96 4.82ZM9.29 13.78Q7.61 13.78 5.96 14.62Q4.32 15.46 3.26 16.91Q2.21 18.36 2.21 20.09Q2.21 20.93 2.81 21.53Q3.41 22.13 4.25 22.13L15.65 22.13Q16.51 22.13 17.11 21.53Q17.71 20.93 17.71 20.09Q17.71 18.36 16.66 16.91Q15.6 15.46 13.96 14.62Q12.31 13.78 10.63 13.78L9.29 13.78Z" fill="rgba(0,0,0,1)"></path><path d="M15.24 8.78Q15.24 9 15.19 9.34L15.17 9.6Q16.42 9.24 17.21 8.2Q18 7.15 18 5.83Q18 4.75 17.47 3.84Q16.94 2.93 16.03 2.39Q15.12 1.85 14.04 1.85Q13.03 1.85 12.17 2.32Q11.3 2.78 10.75 3.6Q12 3.79 13.03 4.52Q14.06 5.26 14.65 6.37Q15.24 7.49 15.24 8.78ZM14.81 10.82Q14.57 11.42 14.17 11.94Q13.78 12.46 13.25 12.89Q14.76 13.34 15.97 14.32Q17.18 15.29 17.94 16.56Q18.7 17.83 18.91 19.18L19.73 19.18Q20.59 19.18 21.19 18.58Q21.79 17.98 21.79 17.14Q21.79 15.41 20.76 13.97Q19.73 12.53 18.11 11.69Q16.49 10.85 14.81 10.82Z" fill="rgba(0,0,0,1)"></path></g></svg>