<?xml version="1.0" standalone="no"?>
<svg xmlns="http://www.w3.org/2000/svg" width="24" height="24"><rect width="24" height="24" opacity="0"></rect><g><path d="M20.62 14.52Q20.42 14.52 20.26 14.64Q20.09 14.76 20.04 14.93Q19.7 15.98 19.13 16.85Q18.55 17.71 17.83 18.36L16.51 17.69Q16.34 17.62 16.21 17.66Q16.08 17.71 15.98 17.88L14.45 20.83Q14.38 20.98 14.44 21.12Q14.5 21.26 14.64 21.34Q14.78 21.41 14.95 21.38L15.07 21.34Q15.7 21.14 16.76 20.58Q17.83 20.02 19.03 19.01Q19.73 18.41 20.28 17.45Q20.83 16.49 21.24 15.36L21.24 15.34Q21.36 15.02 21.16 14.77Q20.95 14.52 20.62 14.52ZM4.1 9.84Q4.3 9.84 4.46 9.72Q4.63 9.6 4.68 9.43Q5.02 8.38 5.59 7.51Q6.17 6.65 6.89 6L8.21 6.67Q8.38 6.74 8.51 6.7Q8.64 6.65 8.74 6.48L10.27 3.53Q10.34 3.38 10.28 3.24Q10.22 3.1 10.08 3.02Q9.94 2.95 9.77 3L9.65 3.02Q9 3.22 7.94 3.78Q6.89 4.34 5.69 5.38Q4.99 5.95 4.44 6.91Q3.89 7.87 3.48 9.02L3.48 9.05Q3.36 9.34 3.56 9.59Q3.77 9.84 4.1 9.84Z" fill="rgba(0,0,0,0.9019607843137255)"></path><path d="M11.98 19.49Q9.94 18.79 8.64 17.86Q9.38 17.04 9.9 16.03Q10.42 15.02 10.78 13.73L11.59 13.73Q11.98 13.73 12.17 13.56Q12.36 13.39 12.36 13.08Q12.36 12.77 12.17 12.6Q11.98 12.43 11.59 12.43L8.59 12.43Q8.5 12 8.38 11.57Q8.28 11.23 8.04 11.09Q7.8 10.94 7.46 10.99Q7.08 11.09 6.91 11.33Q6.74 11.57 6.84 11.93Q6.94 12.19 6.96 12.41L3.6 12.41Q3.24 12.41 3.04 12.58Q2.83 12.74 2.83 13.06Q2.83 13.37 3.04 13.54Q3.24 13.7 3.6 13.7L4.42 13.7Q4.82 15.02 5.35 16.03Q5.88 17.04 6.62 17.83Q5.38 18.74 3.26 19.51Q2.9 19.66 2.78 19.91Q2.66 20.16 2.81 20.5Q2.95 20.81 3.19 20.92Q3.43 21.02 3.74 20.93Q3.79 20.9 3.84 20.88Q5.04 20.4 5.98 19.88Q6.91 19.37 7.63 18.77Q9.1 19.9 11.45 20.86L11.52 20.88Q11.83 20.98 12.06 20.87Q12.29 20.76 12.43 20.42Q12.58 20.09 12.46 19.85Q12.34 19.61 11.98 19.49ZM19.61 11.21Q19.8 11.71 20.05 11.89Q20.3 12.07 20.76 11.95Q21.14 11.86 21.19 11.47Q21.24 11.09 21.05 10.63L18.19 3.55Q18.02 3.07 17.75 2.84Q17.47 2.62 17.09 2.62Q16.78 2.62 16.54 2.77Q16.3 2.93 16.13 3.24Q16.06 3.38 15.98 3.55L13.22 10.63Q12.98 11.26 13 11.56Q13.01 11.86 13.49 11.98Q13.94 12.07 14.16 11.9Q14.38 11.74 14.57 11.23L15.12 9.77L19.06 9.77L19.61 11.21ZM17.04 4.49L18.55 8.4L15.6 8.4ZM9.31 13.73Q8.78 15.72 7.61 16.97Q6.41 15.7 5.86 13.73L9.31 13.73Z" fill="rgba(0,0,0,0.9019607843137255)"></path></g></svg>