<?xml version="1.0" standalone="no"?>
<svg xmlns="http://www.w3.org/2000/svg" width="24" height="24"><rect width="24" height="24" opacity="0"></rect><g><path d="M20.11 11.5Q20.54 11.5 20.78 11.17Q21.02 10.85 20.95 10.46Q20.88 10.08 20.47 9.89L3.98 2.02Q3.74 1.9 3.53 1.87Q3.31 1.85 3.17 1.99Q3.02 2.14 3.02 2.5L3.02 10.42Q3.02 10.87 3.34 11.18Q3.65 11.5 4.1 11.5L20.11 11.5ZM17.23 10.01L4.54 10.01L4.54 3.96ZM4.1 12.41Q3.65 12.41 3.34 12.72Q3.02 13.03 3.02 13.49L3.02 21.46Q3.02 21.65 3.1 21.82Q3.17 21.98 3.36 22.03Q3.55 22.08 3.86 21.94L20.47 14.04Q20.86 13.85 20.93 13.45Q21 13.06 20.76 12.73Q20.52 12.41 20.11 12.41L4.1 12.41Z" fill="rgba(0,0,0,0.9019607843137255)"></path></g></svg>